<svg width="76" height="14" viewBox="0 0 76 14" fill="none" xmlns="http://www.w3.org/2000/svg">
<g id="coffee">
<path id="Vector" d="M65.3676 13.6296V0.344744H75.7461V3.52703H69.5401V5.29182H74.7935V8.34805H69.5401V10.4035H76V13.6296H65.3676Z" fill="#24388D"/>
<path id="Vector_2" d="M52.7899 13.6296V0.344744H63.1683V3.52703H56.9573V5.29182H62.2056V8.34805H56.9573V10.4035H63.4197V13.6296H52.7899Z" fill="#24388D"/>
<path id="Vector_3" d="M41.3883 13.6296V0.344744H51.2063V3.6891H45.5533V5.74717H50.0525V8.95775H45.5533V13.6321H41.3883V13.6296Z" fill="#24388D"/>
<path id="Vector_4" d="M29.9768 13.6296V0.344744H39.7973V3.6891H34.1493V5.74717H38.641V8.95775H34.1493V13.6321H29.9768V13.6296Z" fill="#24388D"/>
<path id="Vector_5" d="M14.5888 6.99743C14.5888 4.83646 15.187 3.12312 16.3961 1.87541C17.6101 0.622565 19.254 0 21.3402 0C23.4214 0 25.0628 0.622565 26.2693 1.87541C27.4783 3.12312 28.074 4.83646 28.074 6.99743C28.074 9.1584 27.4783 10.8666 26.2693 12.1194C25.0628 13.3723 23.4214 13.9974 21.3402 13.9974C19.254 13.9974 17.6101 13.3723 16.3961 12.1194C15.187 10.8692 14.5888 9.1584 14.5888 6.99743ZM18.7965 6.99743C18.7965 8.25285 19.0001 9.17898 19.4098 9.7681C19.822 10.3572 20.4655 10.6505 21.3377 10.6505C22.2099 10.6505 22.8509 10.3572 23.2555 9.77067C23.6577 9.1867 23.8613 8.26057 23.8613 6.99743C23.8613 5.73172 23.6602 4.80301 23.2555 4.21389C22.8509 3.63506 22.2099 3.33921 21.3377 3.33921C20.4655 3.33921 19.8195 3.63506 19.4098 4.22418C19.0001 4.8133 18.7965 5.73686 18.7965 6.99743Z" fill="#24388D"/>
<path id="Vector_6" d="M9.44355 8.48183H13.3898C13.2767 10.2312 12.6735 11.5947 11.5826 12.5568C10.4917 13.5189 9.0263 14 7.16627 14C5.08505 14 3.45375 13.3826 2.25981 12.1349C1.06336 10.8846 0.467651 9.17385 0.467651 7.00002C0.467651 4.83905 1.06336 3.12571 2.24222 1.87801C3.41856 0.625157 5.03226 0.00259209 7.06824 0.00259209C8.94838 0.00259209 10.4264 0.465657 11.5072 1.39179C12.5855 2.32306 13.1913 3.65309 13.3195 5.38186H9.3229C9.26509 4.70013 9.04893 4.18561 8.67441 3.83574C8.30994 3.49359 7.78209 3.3238 7.116 3.3238C6.30412 3.3238 5.6883 3.62993 5.27859 4.23706C4.86888 4.84677 4.67032 5.77032 4.67032 7.00259C4.67032 8.21428 4.89151 9.13012 5.32133 9.74754C5.75868 10.3675 6.39712 10.6788 7.23414 10.6788C7.88515 10.6788 8.39289 10.491 8.77495 10.1051C9.15449 9.72696 9.38072 9.18672 9.44355 8.48183Z" fill="#24388D"/>
</g>
</svg>
