<svg xmlns="http://www.w3.org/2000/svg" width="16" height="16" fill="none" viewBox="0 0 16 16">
  <g clip-path="url(#a)">
    <path fill="#FEFEFE" d="M8 4.667A3.335 3.335 0 0 1 11.333 8c0 .43-.086.84-.236 1.217l1.95 1.95A7.917 7.917 0 0 0 15.337 8c-1.157-2.927-4-5-7.337-5a7.8 7.8 0 0 0-2.657.467l1.44 1.436A3.35 3.35 0 0 1 8 4.667ZM1.333 2.85l1.52 1.52.304.303A7.896 7.896 0 0 0 .667 8c1.153 2.927 4 5 7.333 5 1.033 0 2.02-.2 2.923-.563l.284.283 1.943 1.947.85-.847L2.183 2l-.85.85ZM5.02 6.533l1.03 1.03C6.02 7.707 6 7.85 6 8c0 1.103.897 2 2 2 .15 0 .293-.02.433-.05l1.03 1.03A3.28 3.28 0 0 1 8 11.333 3.335 3.335 0 0 1 4.667 8c0-.527.133-1.02.353-1.467Zm2.87-.523 2.1 2.1L10 8c0-1.103-.897-2-2-2l-.11.01Z"/>
  </g>
  <defs>
    <clipPath id="a">
      <path fill="#fff" d="M0 0h16v16H0z"/>
    </clipPath>
  </defs>
</svg>
